<?xml version="1.0" encoding="UTF-8"?>
<svg version="1.1" xmlns="http://www.w3.org/2000/svg" width="512" height="512">
<path d="M0 0 C1.14082031 0.84304687 1.14082031 0.84304687 2.3046875 1.703125 C20.79209289 15.6444471 35.19255909 33.64981872 46 54 C46 54.66 46 55.32 46 56 C46.51949219 55.54109375 47.03898437 55.0821875 47.57421875 54.609375 C49.01534791 53.34139444 50.46222835 52.07992794 51.9140625 50.82421875 C53.49643692 49.44038195 55.03939121 48.0113108 56.5625 46.5625 C59.91007458 44.41661886 62.05034078 44.74986836 66 45 C68.62750625 45.68531864 71.08028177 46.40995258 73.625 47.3125 C74.26695312 47.52583984 74.90890625 47.73917969 75.5703125 47.95898438 C85.01639496 51.20123604 85.01639496 51.20123604 87.27734375 55.3359375 C88.0385605 58.14215276 88.37476658 60.72511777 88.5625 63.625 C88.76951698 66.70913045 89.01721121 69.05163364 90 72 C90.54527344 71.855625 91.09054687 71.71125 91.65234375 71.5625 C105.10109248 68.25203878 105.10109248 68.25203878 109.83984375 71.109375 C115.27962427 76.0927567 120.10329454 83.24102059 123 90 C122.84173226 94.57492682 121.8909942 97.81603555 119.5 101.6875 C117.80138736 104.46749685 116.63696119 106.79347947 116 110 C116.58007812 110.17015625 117.16015625 110.3403125 117.7578125 110.515625 C122.78647915 112.0756734 126.87220512 113.6977641 131 117 C132.52664487 121.5799346 132.1844271 126.14071028 132.1875 130.9375 C132.19974609 131.93974609 132.21199219 132.94199219 132.22460938 133.97460938 C132.22654297 134.94076172 132.22847656 135.90691406 132.23046875 136.90234375 C132.23457764 137.78398193 132.23868652 138.66562012 132.24291992 139.57397461 C131.98020865 142.19765496 131.41058646 143.78397477 130 146 C127.72265625 147.44921875 127.72265625 147.44921875 125.0625 148.6875 C124.18722656 149.10386719 123.31195313 149.52023438 122.41015625 149.94921875 C120 151 120 151 117 152 C117.39282188 157.10668449 119.24423908 160.43858348 121.94140625 164.65625 C123.31131997 167.68926932 123.37165425 169.69734522 123 173 C119.79814174 179.75407182 113.91511088 189.54244456 107 193 C101.75390489 193.32788094 97.15142943 192.52140287 92.0390625 191.33984375 C91.02972656 191.17162109 91.02972656 191.17162109 90 191 C88.32432007 192.67567993 88.79600917 194.8902059 88.6875 197.1875 C88.23950055 202.19989968 87.62638733 205.28295298 84 209 C81.11304166 210.6893624 78.14147038 211.86725828 75 213 C73.824375 213.45052734 73.824375 213.45052734 72.625 213.91015625 C68.35524042 215.46082907 64.58002104 216.71244772 60 216 C54.85414099 213.3198651 51.54272836 209.47238048 48 205 C45.19970148 208.34581121 42.96563996 211.67591485 40.875 215.5 C20.58785686 250.69022494 -14.69233407 276.35061007 -53.50561523 287.23046875 C-72.00445789 292.13328419 -91.2862653 294.55676728 -110.31005859 291.73730469 C-119.14770038 290.23800589 -119.14770038 290.23800589 -127.27734375 293.04296875 C-129.44943678 295.64055868 -131.23287365 298.21760748 -132.89892578 301.16210938 C-134.85274625 304.42338665 -137.30104192 307.29928785 -139.6875 310.25 C-140.60812402 311.42472202 -141.52743627 312.60047347 -142.4453125 313.77734375 C-150.82110507 324.41055254 -150.82110507 324.41055254 -154 326 C-160.8169247 326.68169247 -163.9914384 325.34813686 -169.25 321.125 C-174.33505626 317.10282334 -174.33505626 317.10282334 -180 314 C-184.60697287 318.98978723 -188.95789544 324.1382799 -193.125 329.5 C-197.2929464 334.86182449 -201.54689431 340.14155265 -205.875 345.375 C-212.08581961 352.88577831 -218.2451944 360.43626811 -224.38232422 368.00732422 C-226.0239671 370.02952301 -227.66961516 372.04839838 -229.31640625 374.06640625 C-234.47802432 380.39590405 -239.60544231 386.74456612 -244.625 393.1875 C-248.58482939 398.26849452 -252.67915232 403.20901104 -256.87109375 408.09960938 C-260.23612602 412.04465432 -263.44783163 416.09027431 -266.625 420.1875 C-269.96358846 424.46399394 -273.33559724 428.69882328 -276.875 432.8125 C-277.55304688 433.60269531 -278.23109375 434.39289063 -278.9296875 435.20703125 C-281.35360873 437.3062385 -282.82801579 437.75329012 -286 438 C-293.2996143 436.43579693 -298.05948613 431.821496 -303.515625 427.02734375 C-306.87435138 424.07856293 -310.34590515 421.30358807 -313.875 418.5625 C-315.03264645 417.65897506 -316.19019719 416.75532748 -317.34765625 415.8515625 C-317.93562988 415.39297852 -318.52360352 414.93439453 -319.12939453 414.46191406 C-322.53458707 411.80069077 -325.92687514 409.12355868 -329.3125 406.4375 C-329.96524902 405.92453369 -330.61799805 405.41156738 -331.29052734 404.88305664 C-336.8207257 400.48541565 -336.8207257 400.48541565 -337.4375 395.375 C-337.39325257 391.78733832 -336.59097251 390.00670408 -334.3671875 387.21484375 C-333.82151123 386.52165039 -333.27583496 385.82845703 -332.71362305 385.11425781 C-332.14812744 384.41655273 -331.58263184 383.71884766 -331 383 C-330.48284424 382.3512793 -329.96568848 381.70255859 -329.43286133 381.03417969 C-327.862713 379.07552316 -326.27754172 377.1300329 -324.6875 375.1875 C-324.11773437 374.48882812 -323.54796875 373.79015625 -322.9609375 373.0703125 C-321.30899725 371.04547377 -319.65495509 369.02237495 -318 367 C-317.21238281 366.03707031 -316.42476563 365.07414062 -315.61328125 364.08203125 C-314.19566519 362.3499717 -312.77769205 360.61820434 -311.359375 358.88671875 C-306.2241525 352.60372301 -301.11468124 346.29971894 -296 340 C-289.47101384 331.95829108 -282.93960706 323.91893215 -276.375 315.90625 C-272.83984805 311.58034037 -269.31994141 307.24207795 -265.79907227 302.90454102 C-262.68859758 299.07385117 -259.56902288 295.25102424 -256.4375 291.4375 C-252.7687929 286.95580195 -249.12756075 282.45252427 -245.5 277.9375 C-244.97075928 277.28128662 -244.44151855 276.62507324 -243.89624023 275.94897461 C-241.19349837 272.64406816 -241.19349837 272.64406816 -239 269 C-240.03253906 268.65775391 -240.03253906 268.65775391 -241.0859375 268.30859375 C-244.66583901 266.70099723 -247.5689289 264.48014528 -250.625 262.0625 C-251.19734375 261.61970703 -251.7696875 261.17691406 -252.359375 260.72070312 C-259.69448038 254.99761509 -259.69448038 254.99761509 -260.57421875 252.125 C-260.99298938 244.26944064 -256.86794995 239.77930132 -252 234 C-251.50226074 233.40896484 -251.00452148 232.81792969 -250.49169922 232.20898438 C-247.89794972 229.13951492 -245.28091678 226.09249583 -242.63671875 223.06640625 C-242.17958496 222.53160645 -241.72245117 221.99680664 -241.25146484 221.44580078 C-240.20519845 220.23706305 -239.11701952 219.06477215 -238.01953125 217.90234375 C-236.72714744 216.00379121 -236.72714744 216.00379121 -237.57421875 213.72265625 C-238.04472656 212.82417969 -238.51523438 211.92570313 -239 211 C-239.58394531 209.82308594 -240.16789062 208.64617187 -240.76953125 207.43359375 C-241.45028037 206.10143959 -242.13128115 204.76941401 -242.8125 203.4375 C-262.84450233 163.59020394 -266.02004729 119.38331586 -252.25 76.9375 C-244.28643974 53.4746664 -231.10497397 32.01532276 -213 15 C-212.21625 14.195625 -211.4325 13.39125 -210.625 12.5625 C-209.75875 11.716875 -208.8925 10.87125 -208 10 C-207.34 9.35546875 -206.68 8.7109375 -206 8.046875 C-151.9970926 -42.75849183 -57.65509458 -47.00798653 0 0 Z " fill="#030202" transform="translate(337,32)"/>
<path d="M0 0 C1.14082031 0.84304687 1.14082031 0.84304687 2.3046875 1.703125 C20.79209289 15.6444471 35.19255909 33.64981872 46 54 C46 54.66 46 55.32 46 56 C46.51949219 55.54109375 47.03898437 55.0821875 47.57421875 54.609375 C49.01534791 53.34139444 50.46222835 52.07992794 51.9140625 50.82421875 C53.49643692 49.44038195 55.03939121 48.0113108 56.5625 46.5625 C59.91007458 44.41661886 62.05034078 44.74986836 66 45 C68.62750625 45.68531864 71.08028177 46.40995258 73.625 47.3125 C74.26695312 47.52583984 74.90890625 47.73917969 75.5703125 47.95898438 C85.01639496 51.20123604 85.01639496 51.20123604 87.27734375 55.3359375 C88.0385605 58.14215276 88.37476658 60.72511777 88.5625 63.625 C88.76951698 66.70913045 89.01721121 69.05163364 90 72 C90.54527344 71.855625 91.09054687 71.71125 91.65234375 71.5625 C105.10109248 68.25203878 105.10109248 68.25203878 109.83984375 71.109375 C115.27962427 76.0927567 120.10329454 83.24102059 123 90 C122.84173226 94.57492682 121.8909942 97.81603555 119.5 101.6875 C117.80138736 104.46749685 116.63696119 106.79347947 116 110 C116.58007812 110.17015625 117.16015625 110.3403125 117.7578125 110.515625 C122.78647915 112.0756734 126.87220512 113.6977641 131 117 C132.52664487 121.5799346 132.1844271 126.14071028 132.1875 130.9375 C132.19974609 131.93974609 132.21199219 132.94199219 132.22460938 133.97460938 C132.22654297 134.94076172 132.22847656 135.90691406 132.23046875 136.90234375 C132.23457764 137.78398193 132.23868652 138.66562012 132.24291992 139.57397461 C131.98020865 142.19765496 131.41058646 143.78397477 130 146 C127.72265625 147.44921875 127.72265625 147.44921875 125.0625 148.6875 C124.18722656 149.10386719 123.31195313 149.52023438 122.41015625 149.94921875 C120 151 120 151 117 152 C117.39282188 157.10668449 119.24423908 160.43858348 121.94140625 164.65625 C123.31131997 167.68926932 123.37165425 169.69734522 123 173 C119.79814174 179.75407182 113.91511088 189.54244456 107 193 C101.75390489 193.32788094 97.15142943 192.52140287 92.0390625 191.33984375 C91.02972656 191.17162109 91.02972656 191.17162109 90 191 C88.32432007 192.67567993 88.79600917 194.8902059 88.6875 197.1875 C88.23950055 202.19989968 87.62638733 205.28295298 84 209 C81.11304166 210.6893624 78.14147038 211.86725828 75 213 C73.824375 213.45052734 73.824375 213.45052734 72.625 213.91015625 C68.35524042 215.46082907 64.58002104 216.71244772 60 216 C54.85414099 213.3198651 51.54272836 209.47238048 48 205 C45.19970148 208.34581121 42.96563996 211.67591485 40.875 215.5 C20.58785686 250.69022494 -14.69233407 276.35061007 -53.50561523 287.23046875 C-72.00445789 292.13328419 -91.2862653 294.55676728 -110.31005859 291.73730469 C-119.14770038 290.23800589 -119.14770038 290.23800589 -127.27734375 293.04296875 C-129.44943678 295.64055868 -131.23287365 298.21760748 -132.89892578 301.16210938 C-134.85274625 304.42338665 -137.30104192 307.29928785 -139.6875 310.25 C-140.60812402 311.42472202 -141.52743627 312.60047347 -142.4453125 313.77734375 C-150.82110507 324.41055254 -150.82110507 324.41055254 -154 326 C-160.8169247 326.68169247 -163.9914384 325.34813686 -169.25 321.125 C-174.33505626 317.10282334 -174.33505626 317.10282334 -180 314 C-184.60697287 318.98978723 -188.95789544 324.1382799 -193.125 329.5 C-197.2929464 334.86182449 -201.54689431 340.14155265 -205.875 345.375 C-212.08581961 352.88577831 -218.2451944 360.43626811 -224.38232422 368.00732422 C-226.0239671 370.02952301 -227.66961516 372.04839838 -229.31640625 374.06640625 C-234.47802432 380.39590405 -239.60544231 386.74456612 -244.625 393.1875 C-248.58482939 398.26849452 -252.67915232 403.20901104 -256.87109375 408.09960938 C-260.23612602 412.04465432 -263.44783163 416.09027431 -266.625 420.1875 C-269.96358846 424.46399394 -273.33559724 428.69882328 -276.875 432.8125 C-277.55304688 433.60269531 -278.23109375 434.39289063 -278.9296875 435.20703125 C-281.35360873 437.3062385 -282.82801579 437.75329012 -286 438 C-293.2996143 436.43579693 -298.05948613 431.821496 -303.515625 427.02734375 C-306.87435138 424.07856293 -310.34590515 421.30358807 -313.875 418.5625 C-315.03264645 417.65897506 -316.19019719 416.75532748 -317.34765625 415.8515625 C-317.93562988 415.39297852 -318.52360352 414.93439453 -319.12939453 414.46191406 C-322.53458707 411.80069077 -325.92687514 409.12355868 -329.3125 406.4375 C-329.96524902 405.92453369 -330.61799805 405.41156738 -331.29052734 404.88305664 C-336.8207257 400.48541565 -336.8207257 400.48541565 -337.4375 395.375 C-337.39325257 391.78733832 -336.59097251 390.00670408 -334.3671875 387.21484375 C-333.82151123 386.52165039 -333.27583496 385.82845703 -332.71362305 385.11425781 C-332.14812744 384.41655273 -331.58263184 383.71884766 -331 383 C-330.48284424 382.3512793 -329.96568848 381.70255859 -329.43286133 381.03417969 C-327.862713 379.07552316 -326.27754172 377.1300329 -324.6875 375.1875 C-324.11773437 374.48882812 -323.54796875 373.79015625 -322.9609375 373.0703125 C-321.30899725 371.04547377 -319.65495509 369.02237495 -318 367 C-317.21238281 366.03707031 -316.42476563 365.07414062 -315.61328125 364.08203125 C-314.19566519 362.3499717 -312.77769205 360.61820434 -311.359375 358.88671875 C-306.2241525 352.60372301 -301.11468124 346.29971894 -296 340 C-289.47101384 331.95829108 -282.93960706 323.91893215 -276.375 315.90625 C-272.83984805 311.58034037 -269.31994141 307.24207795 -265.79907227 302.90454102 C-262.68859758 299.07385117 -259.56902288 295.25102424 -256.4375 291.4375 C-252.7687929 286.95580195 -249.12756075 282.45252427 -245.5 277.9375 C-244.97075928 277.28128662 -244.44151855 276.62507324 -243.89624023 275.94897461 C-241.19349837 272.64406816 -241.19349837 272.64406816 -239 269 C-240.03253906 268.65775391 -240.03253906 268.65775391 -241.0859375 268.30859375 C-244.66583901 266.70099723 -247.5689289 264.48014528 -250.625 262.0625 C-251.19734375 261.61970703 -251.7696875 261.17691406 -252.359375 260.72070312 C-259.69448038 254.99761509 -259.69448038 254.99761509 -260.57421875 252.125 C-260.99298938 244.26944064 -256.86794995 239.77930132 -252 234 C-251.50226074 233.40896484 -251.00452148 232.81792969 -250.49169922 232.20898438 C-247.89794972 229.13951492 -245.28091678 226.09249583 -242.63671875 223.06640625 C-242.17958496 222.53160645 -241.72245117 221.99680664 -241.25146484 221.44580078 C-240.20519845 220.23706305 -239.11701952 219.06477215 -238.01953125 217.90234375 C-236.72714744 216.00379121 -236.72714744 216.00379121 -237.57421875 213.72265625 C-238.04472656 212.82417969 -238.51523438 211.92570313 -239 211 C-239.58394531 209.82308594 -240.16789062 208.64617187 -240.76953125 207.43359375 C-241.45028037 206.10143959 -242.13128115 204.76941401 -242.8125 203.4375 C-262.84450233 163.59020394 -266.02004729 119.38331586 -252.25 76.9375 C-244.28643974 53.4746664 -231.10497397 32.01532276 -213 15 C-212.21625 14.195625 -211.4325 13.39125 -210.625 12.5625 C-209.75875 11.716875 -208.8925 10.87125 -208 10 C-207.34 9.35546875 -206.68 8.7109375 -206 8.046875 C-151.9970926 -42.75849183 -57.65509458 -47.00798653 0 0 Z M-128 -12 C-128.67514648 -11.85546387 -129.35029297 -11.71092773 -130.04589844 -11.56201172 C-164.82403015 -4.04534036 -197.89229322 17.61548424 -217.7265625 47.40234375 C-239.643575 81.59930167 -248.81107734 121.57334127 -240.1875 161.7890625 C-239.23558269 165.23976276 -238.15358976 168.61156803 -237 172 C-236.57323082 173.34604134 -236.14749649 174.6924111 -235.72265625 176.0390625 C-231.1161375 190.24331381 -224.41156757 202.8923801 -215.875 215.125 C-215.15739502 216.15463867 -215.15739502 216.15463867 -214.42529297 217.20507812 C-211.44093372 221.3496261 -208.20346383 224.96981125 -204.51391602 228.50146484 C-203 230 -203 230 -201.0625 232.5 C-198.06124198 236.13788851 -194.65751676 239.0324749 -191 242 C-189.99453125 242.81597656 -188.9890625 243.63195312 -187.953125 244.47265625 C-173.29869985 255.95430071 -156.0652395 265.31072506 -138 270 C-137.29037109 270.18498047 -136.58074219 270.36996094 -135.84960938 270.56054688 C-120.91712273 274.37391621 -106.40688464 275.32097676 -91 275 C-89.865625 274.99484375 -88.73125 274.9896875 -87.5625 274.984375 C-70.33086855 274.44588652 -52.5441707 269.31189608 -37 262 C-36.33484375 261.68724121 -35.6696875 261.37448242 -34.984375 261.05224609 C-16.70853377 252.30776373 0.19298534 239.78348502 13 224 C13.75925781 223.08992187 14.51851563 222.17984375 15.30078125 221.2421875 C31.78511439 201.01746599 43.6572155 174.51282625 46.125 148.4375 C46.20919189 147.56343506 46.29338379 146.68937012 46.38012695 145.78881836 C49.82729973 107.56955626 40.07934787 68.45879502 15.19921875 38.640625 C4.42476846 26.19137187 -7.00696468 15.67883504 -21 7 C-21.97839844 6.35933594 -22.95679688 5.71867187 -23.96484375 5.05859375 C-54.27404469 -13.94310726 -93.32855619 -19.78321583 -128 -12 Z " fill="#010000" transform="translate(337,32)"/>
<path d="M0 0 C2.39701798 2.04623486 4.35769183 4.14224677 6.24609375 6.6640625 C8.69506218 10.02652915 8.69506218 10.02652915 12.44140625 11.4375 C15.12527106 11.23748742 15.12527106 11.23748742 16.80859375 9.13671875 C17.34613281 8.32847656 17.88367188 7.52023437 18.4375 6.6875 C23.18599673 0.22709887 23.18599673 0.22709887 28 -1 C34.37162306 -0.77986715 40.49153386 1.74704742 46.4375 3.875 C47.48526611 4.24129517 47.48526611 4.24129517 48.55419922 4.61499023 C52.45752782 6.07980819 55.21584865 7.13216823 57 11 C57.36989022 13.81229514 57.60038059 16.43230942 57.6875 19.25 C57.72166016 19.99507813 57.75582031 20.74015625 57.79101562 21.5078125 C57.87314054 23.33802492 57.93825653 25.16898669 58 27 C59.90458984 27.01546875 59.90458984 27.01546875 61.84765625 27.03125 C62.56187744 27.03705078 63.27609863 27.04285156 64.01196289 27.04882812 C66.08990494 27.05641823 66.08990494 27.05641823 68.4375 26.5 C76.08060545 25.00866235 76.08060545 25.00866235 80 26 C83.30662525 28.53650551 85.59778059 31.61837673 88 35 C88.66644531 35.93585938 89.33289063 36.87171875 90.01953125 37.8359375 C93.1838992 42.54059861 95.60600375 46.22138837 96 52 C95.328125 54.16015625 95.328125 54.16015625 94.25 56.0625 C93.693125 57.08150391 93.693125 57.08150391 93.125 58.12109375 C92.21003453 59.64921316 91.23797551 61.14303674 90.25 62.625 C88.70120876 65.56770335 88.77131104 67.72212497 89 71 C89.804375 71.226875 90.60875 71.45375 91.4375 71.6875 C102.59220018 75.79712638 102.59220018 75.79712638 105.09887695 79.71948242 C106.98591532 84.49510565 106.41267235 89.86990167 106.4375 94.9375 C106.48680664 96.70770508 106.48680664 96.70770508 106.53710938 98.51367188 C106.59086834 107.14931721 106.59086834 107.14931721 103.796875 111.171875 C101.15616526 112.8979255 98.76985589 114.2253026 95.8125 115.3125 C94.95269531 115.63863281 94.09289062 115.96476562 93.20703125 116.30078125 C91 117 91 117 89 117 C88.26386825 121.66216776 89.50751973 124.16074716 91.9375 128 C96.25568182 134.90909091 96.25568182 134.90909091 96 139 C92.9551516 147.62204596 86.81833353 157.03896909 79 162 C73.6419744 162.54673731 68.67088671 161.45481238 63.453125 160.33984375 C60.86951705 159.79715053 60.86951705 159.79715053 58 161 C57.97421875 161.94101562 57.9484375 162.88203125 57.921875 163.8515625 C57.32365658 176.98517603 57.32365658 176.98517603 53 181 C47.02169761 184.41205362 40.76447893 186.78017593 34 188 C33.01580078 188.17789063 33.01580078 188.17789063 32.01171875 188.359375 C28.66206101 188.69759287 26.72253817 188.46938611 23.859375 186.609375 C20.13074873 183.43313781 16.88564867 179.96776692 14 176 C10.79205299 176.28629275 9.94714886 177.0585105 7.73828125 179.50390625 C6.53751953 181.01791016 6.53751953 181.01791016 5.3125 182.5625 C0.97130793 187.58755123 0.97130793 187.58755123 -2.125 188.90234375 C-11.30599977 189.33705018 -23.57445065 184.12716503 -31 179 C-32.5826993 175.8346014 -32.65696549 172.35358491 -33.0625 168.875 C-33.15337891 168.12089844 -33.24425781 167.36679687 -33.33789062 166.58984375 C-33.56190852 164.72695812 -33.78138573 162.86352748 -34 161 C-37.32647048 159.89117651 -38.42592467 160.14777403 -41.75 160.9375 C-45.94351246 161.8225936 -49.69768912 162.50615422 -54 162 C-58.41984802 159.04131884 -61.19514945 155.35862809 -64.1875 151.0625 C-64.62513672 150.45470703 -65.06277344 149.84691406 -65.51367188 149.22070312 C-68.38304602 145.15977208 -71 141.44757653 -71 136.3125 C-70.01209432 133.04006243 -68.75654403 130.86832711 -66.9375 128 C-64.50751973 124.16074716 -63.26386825 121.66216776 -64 117 C-64.58007812 116.81824219 -65.16015625 116.63648438 -65.7578125 116.44921875 C-77.99159664 112.51260504 -77.99159664 112.51260504 -81 108 C-81.4968291 103.5574373 -81.41660298 99.09231908 -81.4375 94.625 C-81.47037109 93.39265625 -81.50324219 92.1603125 -81.53710938 90.890625 C-81.59102766 81.85196008 -81.59102766 81.85196008 -78.796875 77.82421875 C-76.17234172 76.11240724 -73.64126855 74.53555158 -70.8125 73.1875 C-69.95269531 72.76855469 -69.09289062 72.34960938 -68.20703125 71.91796875 C-66 71 -66 71 -64 71 C-63.26386825 66.33783224 -64.50751973 63.83925284 -66.9375 60 C-71.25568182 53.09090909 -71.25568182 53.09090909 -71 49 C-67.97741055 40.6771352 -61.89163613 30.42701539 -54 26 C-51.13710602 25.7531988 -48.8238717 25.74888389 -46 26 C-45.04609375 26.07863281 -44.0921875 26.15726562 -43.109375 26.23828125 C-41.17862851 26.40760064 -39.24879716 26.58786435 -37.3203125 26.78125 C-35.05657172 27.03128663 -35.05657172 27.03128663 -33 27 C-32.98582031 25.98679687 -32.97164063 24.97359375 -32.95703125 23.9296875 C-32.61104861 11.75049155 -32.61104861 11.75049155 -30.25 8.375 C-25.91224404 4.35340701 -19.50510201 2.77282946 -14 1 C-13.20335937 0.73960937 -12.40671875 0.47921875 -11.5859375 0.2109375 C-7.42046413 -0.99528066 -4.13593975 -1.37864658 0 0 Z " fill="#90AEF5" transform="translate(406,324)"/>
<path d="M0 0 C0 0.66 0 1.32 0 2 C-1.98689731 3.35278115 -3.98745218 4.68568305 -6 6 C-7.8203038 9.64060761 -7.4629217 13.48079841 -6.29296875 17.3203125 C-5.73957775 18.85161363 -5.16283921 20.37476234 -4.55859375 21.88671875 C-3.89450558 24.39910824 -4.02779928 25.6012535 -5 28 C-6.28125 29.796875 -6.28125 29.796875 -8 31 C-10.15625 30.890625 -10.15625 30.890625 -12.5 30.25 C-13.2734375 30.04890625 -14.046875 29.8478125 -14.84375 29.640625 C-16.57271201 29.12694788 -18.28890198 28.57036601 -20 28 C-24.105752 27.13380382 -24.105752 27.13380382 -28 28 C-31.29862665 31.26099973 -33.60329638 35.04854852 -36 39 C-36.65613281 40.06476563 -37.31226563 41.12953125 -37.98828125 42.2265625 C-43.85261821 51.45893302 -43.85261821 51.45893302 -45 62 C-43.34967361 64.64052223 -41.65355461 66.52081815 -39.140625 68.36328125 C-37.1782292 69.81937893 -35.52792537 71.0878853 -34 73 C-33.68359577 76.01675069 -34.22569864 78.00603473 -35 81 C-35.88042969 81.17015625 -36.76085937 81.3403125 -37.66796875 81.515625 C-39.41013672 81.87914062 -39.41013672 81.87914062 -41.1875 82.25 C-42.33605469 82.48203125 -43.48460937 82.7140625 -44.66796875 82.953125 C-48.43884992 84.13788016 -50.27132935 85.13831416 -53 88 C-53.48432139 90.9090034 -53.65683111 93.22295893 -53.59375 96.125 C-53.59379028 96.90891113 -53.59383057 97.69282227 -53.59387207 98.50048828 C-53.58852049 100.15470413 -53.57095277 101.80891964 -53.54199219 103.46289062 C-53.50013775 105.99167762 -53.50092397 108.51780004 -53.5078125 111.046875 C-53.49731924 112.65626846 -53.48438039 114.26564823 -53.46875 115.875 C-53.46854858 116.6292627 -53.46834717 117.38352539 -53.46813965 118.16064453 C-53.39702031 121.32302431 -53.19286704 123.6432511 -51.67602539 126.44897461 C-49.07771191 128.85350273 -46.37946462 128.99655132 -42.9375 129.5625 C-39.15234375 130.19140625 -39.15234375 130.19140625 -36 131 C-33.600455 134.59931749 -33.18519889 135.76303423 -34 140 C-35.85227177 141.98549781 -37.81280964 143.62524026 -39.95703125 145.2890625 C-43.06460446 147.89158079 -44.79868508 149.64306004 -45.40625 153.73828125 C-44.87410538 158.01078857 -43.3781874 161.34296362 -41.5 165.1875 C-40.96511963 166.30318359 -40.96511963 166.30318359 -40.41943359 167.44140625 C-35.35771837 178.22403808 -35.35771837 178.22403808 -27 186 C-21.71347349 186.66081581 -18.03323812 184.90369294 -13.3671875 182.6796875 C-11 182 -11 182 -8.8203125 182.7578125 C-7 184 -7 184 -5 186 C-5.20703125 188.05859375 -5.20703125 188.05859375 -5.8125 190.4375 C-6.10060547 191.61119141 -6.10060547 191.61119141 -6.39453125 192.80859375 C-6.87691432 194.55450924 -7.42720734 196.28162202 -8 198 C-8.38090657 202.11379094 -8.49145369 204.25434612 -6.1875 207.75 C-4.47180827 209.51471149 -2.74275706 211.26223652 -1 213 C-2.47566795 213.4898355 -3.95582103 213.9661592 -5.4375 214.4375 C-6.26121094 214.70433594 -7.08492187 214.97117187 -7.93359375 215.24609375 C-35.04646906 221.91206182 -65.18447319 215.91050327 -89 202 C-114.71434561 185.64238689 -133.88938654 161.57877699 -140.98144531 131.59790039 C-147.28729266 101.52637129 -141.11708046 71.21101075 -124.7578125 45.3828125 C-108.80208999 21.34285725 -84.07871983 4.05192295 -55.7890625 -1.94921875 C-36.56982965 -5.53622898 -19.03383665 -4.10597968 0 0 Z " fill="#DDDCEB" transform="translate(270,55)"/>
<path d="M0 0 C0.89460937 0.63164063 1.78921875 1.26328125 2.7109375 1.9140625 C31.70557378 23.78044933 52.46981861 58.1044026 57.6640625 94.12109375 C60.1956301 115.81603938 60.09524284 138.15918768 53 159 C52.57323082 160.34604134 52.14749649 161.6924111 51.72265625 163.0390625 C47.1161375 177.24331381 40.41156757 189.8923801 31.875 202.125 C31.15739502 203.15463867 31.15739502 203.15463867 30.42529297 204.20507812 C27.44093372 208.3496261 24.20346383 211.96981125 20.51391602 215.50146484 C18.84282943 217.09022535 18.84282943 217.09022535 17.0625 219.5 C14.06151237 223.13756076 10.65900981 226.0347474 7 229 C6.50661133 229.39993164 6.01322266 229.79986328 5.50488281 230.21191406 C-10.12350167 242.69768541 -27.72432048 251.69365164 -47 257 C-47.72171387 257.20206055 -48.44342773 257.40412109 -49.18701172 257.61230469 C-64.01154518 261.67554592 -78.6554818 262.34426804 -94 262 C-95.0828125 261.98324219 -96.165625 261.96648437 -97.28125 261.94921875 C-113.62367786 261.26828426 -130.25957002 257.03386115 -145 250 C-145.73283203 249.65340332 -146.46566406 249.30680664 -147.22070312 248.94970703 C-166.18237058 239.83412498 -183.66441325 227.43490222 -197 211 C-197.75925781 210.08992187 -198.51851562 209.17984375 -199.30078125 208.2421875 C-215.78511439 188.01746599 -227.6572155 161.51282625 -230.125 135.4375 C-230.20919189 134.56343506 -230.29338379 133.68937012 -230.38012695 132.78881836 C-233.83494645 94.48477607 -224.03121548 55.45863759 -199.13671875 25.57421875 C-148.49161436 -33.0614485 -63.74881028 -45.71956929 0 0 Z M-183.51025391 33.31494141 C-187.52413582 37.85506153 -190.80651571 42.85764032 -194 48 C-194.34901367 48.55800293 -194.69802734 49.11600586 -195.05761719 49.69091797 C-203.04580736 62.59350163 -208.36129738 76.25275812 -212 91 C-212.226875 91.89074219 -212.45375 92.78148437 -212.6875 93.69921875 C-219.07339315 124.0765577 -211.56098836 159.04336162 -195 185 C-175.57570898 213.55190925 -147.67121142 235.66116449 -113.1875 242.609375 C-78.06949213 248.88044783 -43.05710897 242.86476584 -13.25927734 222.82958984 C-9.73154824 220.35174292 -6.34625745 217.71602062 -3 215 C-2.25105469 214.39285156 -1.50210938 213.78570312 -0.73046875 213.16015625 C17.54225563 197.75237145 30.4846048 175.79186218 37 153 C37.38027344 151.81921875 37.76054687 150.6384375 38.15234375 149.421875 C47.22146156 118.56750978 41.84565074 83.97151784 27.03222656 55.87060547 C24.34862187 51.00736536 21.29214517 46.46744748 18 42 C17.09701172 40.7625 17.09701172 40.7625 16.17578125 39.5 C2.20020428 21.21748421 -16.15905718 7.02974577 -37.5 -1.625 C-38.44762207 -2.01107422 -39.39524414 -2.39714844 -40.37158203 -2.79492188 C-91.45968753 -22.93945352 -146.98573315 -5.91093066 -183.51025391 33.31494141 Z " fill="#F33343" transform="translate(325,45)"/>
<path d="M0 0 C2.39701798 2.04623486 4.35769183 4.14224677 6.24609375 6.6640625 C8.69506218 10.02652915 8.69506218 10.02652915 12.44140625 11.4375 C15.12527106 11.23748742 15.12527106 11.23748742 16.80859375 9.13671875 C17.34613281 8.32847656 17.88367188 7.52023437 18.4375 6.6875 C23.18599673 0.22709887 23.18599673 0.22709887 28 -1 C34.37162306 -0.77986715 40.49153386 1.74704742 46.4375 3.875 C47.48526611 4.24129517 47.48526611 4.24129517 48.55419922 4.61499023 C52.45752782 6.07980819 55.21584865 7.13216823 57 11 C57.36989022 13.81229514 57.60038059 16.43230942 57.6875 19.25 C57.72166016 19.99507813 57.75582031 20.74015625 57.79101562 21.5078125 C57.87314054 23.33802492 57.93825653 25.16898669 58 27 C59.90458984 27.01546875 59.90458984 27.01546875 61.84765625 27.03125 C62.56187744 27.03705078 63.27609863 27.04285156 64.01196289 27.04882812 C66.08990494 27.05641823 66.08990494 27.05641823 68.4375 26.5 C76.08060545 25.00866235 76.08060545 25.00866235 80 26 C83.30662525 28.53650551 85.59778059 31.61837673 88 35 C88.66644531 35.93585938 89.33289063 36.87171875 90.01953125 37.8359375 C93.1838992 42.54059861 95.60600375 46.22138837 96 52 C95.328125 54.16015625 95.328125 54.16015625 94.25 56.0625 C93.693125 57.08150391 93.693125 57.08150391 93.125 58.12109375 C92.21003453 59.64921316 91.23797551 61.14303674 90.25 62.625 C88.70120876 65.56770335 88.77131104 67.72212497 89 71 C89.804375 71.226875 90.60875 71.45375 91.4375 71.6875 C102.59220018 75.79712638 102.59220018 75.79712638 105.09887695 79.71948242 C106.98591532 84.49510565 106.41267235 89.86990167 106.4375 94.9375 C106.48680664 96.70770508 106.48680664 96.70770508 106.53710938 98.51367188 C106.59086834 107.14931721 106.59086834 107.14931721 103.796875 111.171875 C101.15616526 112.8979255 98.76985589 114.2253026 95.8125 115.3125 C94.95269531 115.63863281 94.09289062 115.96476562 93.20703125 116.30078125 C91 117 91 117 89 117 C88.26386825 121.66216776 89.50751973 124.16074716 91.9375 128 C96.25568182 134.90909091 96.25568182 134.90909091 96 139 C92.9551516 147.62204596 86.81833353 157.03896909 79 162 C73.6419744 162.54673731 68.67088671 161.45481238 63.453125 160.33984375 C60.86951705 159.79715053 60.86951705 159.79715053 58 161 C57.97421875 161.94101562 57.9484375 162.88203125 57.921875 163.8515625 C57.32365658 176.98517603 57.32365658 176.98517603 53 181 C47.02169761 184.41205362 40.76447893 186.78017593 34 188 C33.01580078 188.17789063 33.01580078 188.17789063 32.01171875 188.359375 C28.66206101 188.69759287 26.72253817 188.46938611 23.859375 186.609375 C20.13074873 183.43313781 16.88564867 179.96776692 14 176 C10.79205299 176.28629275 9.94714886 177.0585105 7.73828125 179.50390625 C6.53751953 181.01791016 6.53751953 181.01791016 5.3125 182.5625 C0.97130793 187.58755123 0.97130793 187.58755123 -2.125 188.90234375 C-11.30599977 189.33705018 -23.57445065 184.12716503 -31 179 C-32.5826993 175.8346014 -32.65696549 172.35358491 -33.0625 168.875 C-33.15337891 168.12089844 -33.24425781 167.36679687 -33.33789062 166.58984375 C-33.56190852 164.72695812 -33.78138573 162.86352748 -34 161 C-37.32647048 159.89117651 -38.42592467 160.14777403 -41.75 160.9375 C-45.94351246 161.8225936 -49.69768912 162.50615422 -54 162 C-58.41984802 159.04131884 -61.19514945 155.35862809 -64.1875 151.0625 C-64.62513672 150.45470703 -65.06277344 149.84691406 -65.51367188 149.22070312 C-68.38304602 145.15977208 -71 141.44757653 -71 136.3125 C-70.01209432 133.04006243 -68.75654403 130.86832711 -66.9375 128 C-64.50751973 124.16074716 -63.26386825 121.66216776 -64 117 C-64.58007812 116.81824219 -65.16015625 116.63648438 -65.7578125 116.44921875 C-77.99159664 112.51260504 -77.99159664 112.51260504 -81 108 C-81.4968291 103.5574373 -81.41660298 99.09231908 -81.4375 94.625 C-81.47037109 93.39265625 -81.50324219 92.1603125 -81.53710938 90.890625 C-81.59102766 81.85196008 -81.59102766 81.85196008 -78.796875 77.82421875 C-76.17234172 76.11240724 -73.64126855 74.53555158 -70.8125 73.1875 C-69.95269531 72.76855469 -69.09289062 72.34960938 -68.20703125 71.91796875 C-66 71 -66 71 -64 71 C-63.26386825 66.33783224 -64.50751973 63.83925284 -66.9375 60 C-71.25568182 53.09090909 -71.25568182 53.09090909 -71 49 C-67.97741055 40.6771352 -61.89163613 30.42701539 -54 26 C-51.13710602 25.7531988 -48.8238717 25.74888389 -46 26 C-45.04609375 26.07863281 -44.0921875 26.15726562 -43.109375 26.23828125 C-41.17862851 26.40760064 -39.24879716 26.58786435 -37.3203125 26.78125 C-35.05657172 27.03128663 -35.05657172 27.03128663 -33 27 C-32.98582031 25.98679687 -32.97164063 24.97359375 -32.95703125 23.9296875 C-32.61104861 11.75049155 -32.61104861 11.75049155 -30.25 8.375 C-25.91224404 4.35340701 -19.50510201 2.77282946 -14 1 C-13.20335937 0.73960937 -12.40671875 0.47921875 -11.5859375 0.2109375 C-7.42046413 -0.99528066 -4.13593975 -1.37864658 0 0 Z M-16 22 C-16.5723577 25.03789858 -16.68760419 27.9027151 -16.69921875 30.9921875 C-17.16335475 35.63354752 -18.84200119 38.04657472 -22.41015625 40.984375 C-23.28542969 41.56703125 -24.16070312 42.1496875 -25.0625 42.75 C-25.94035156 43.34296875 -26.81820312 43.9359375 -27.72265625 44.546875 C-32.24452899 47.43218659 -35.98403305 47.5229707 -41.3203125 46.59765625 C-42.10148437 46.46230469 -42.88265625 46.32695312 -43.6875 46.1875 C-44.41324219 46.03667969 -45.13898438 45.88585937 -45.88671875 45.73046875 C-48.31752167 45.8086782 -48.31752167 45.8086782 -50.26953125 48.48828125 C-50.84058594 49.31714844 -51.41164063 50.14601563 -52 51 C-51.566875 51.7734375 -51.13375 52.546875 -50.6875 53.34375 C-46.62479804 60.94250736 -44.64273925 65.86224126 -46.85546875 74.23828125 C-49.66627739 82.86257124 -49.66627739 82.86257124 -52.9375 85.65234375 C-54.94093034 86.6578533 -56.85133243 87.3718613 -59 88 C-59.99 88.4125 -60.98 88.825 -62 89.25 C-62.66 89.4975 -63.32 89.745 -64 90 C-64 92.97 -64 95.94 -64 99 C-63.16855469 99.38671875 -62.33710938 99.7734375 -61.48046875 100.171875 C-60.39378906 100.69265625 -59.30710937 101.2134375 -58.1875 101.75 C-56.56908203 102.51570313 -56.56908203 102.51570313 -54.91796875 103.296875 C-49.79220106 106.28862161 -48.2503115 110.15925566 -46.5859375 115.64453125 C-45.34053993 120.65102949 -44.90314231 124.02988647 -47.41796875 128.546875 C-48.52753527 130.26327538 -49.68101765 131.95233317 -50.8828125 133.60546875 C-52.30557561 135.99133098 -52.30557561 135.99133098 -51.3046875 138.67578125 C-50.08336651 141.09695047 -50.08336651 141.09695047 -48 143 C-46.03655734 142.79421086 -46.03655734 142.79421086 -43.875 142.125 C-33.31449242 139.66088157 -33.31449242 139.66088157 -27.64453125 142.94140625 C-18.50132893 148.99734214 -18.50132893 148.99734214 -17 152 C-16.6087065 154.54197964 -16.25520881 157.07391589 -15.9375 159.625 C-15.84662109 160.33140625 -15.75574219 161.0378125 -15.66210938 161.765625 C-15.43816881 163.5100041 -15.21866182 165.25495134 -15 167 C-12.69 167.66 -10.38 168.32 -8 169 C-7.52949219 168.37351562 -7.05898438 167.74703125 -6.57421875 167.1015625 C-5.95160156 166.28429687 -5.32898438 165.46703125 -4.6875 164.625 C-4.07261719 163.81289063 -3.45773437 163.00078125 -2.82421875 162.1640625 C-0.77067803 159.72795638 0.86859525 158.16529837 4.09716797 157.69360352 C6.69032736 157.62355385 9.28091163 157.57910512 11.875 157.5625 C12.77347656 157.52962891 13.67195313 157.49675781 14.59765625 157.46289062 C19.1498158 157.42590853 21.28203682 157.43663127 24.95703125 160.3203125 C25.63121094 161.20460938 26.30539062 162.08890625 27 163 C27.52207031 163.59425781 28.04414063 164.18851563 28.58203125 164.80078125 C29.72135417 166.20052083 30.86067708 167.60026042 32 169 C36.33229715 168.1395861 36.33229715 168.1395861 40 166 C40.10616913 163.93854934 40.18472518 161.87565048 40.25 159.8125 C40.77636671 152.41097428 40.77636671 152.41097428 43.1875 149.4375 C46.00442274 146.99616696 48.8170164 144.93746828 52 143 C52.99 142.34 53.98 141.68 55 141 C60.9481421 140.29530043 67.09716023 141.25043305 73 142 C75.1348876 139.66298886 75.1348876 139.66298886 76 136 C74.71375344 133.05621921 73.10189867 130.41944553 71.453125 127.6640625 C68.64131457 122.50907672 69.82762687 118.27048244 71.25 112.875 C72.59214618 108.83017588 73.71909581 105.86027545 77 103 C79.58137127 101.78766269 82.17002207 100.75624395 84.85546875 99.796875 C86.9513223 99.18752103 86.9513223 99.18752103 88 98 C88.07179964 96.48071962 88.08392007 94.95832518 88.0625 93.4375 C88.05347656 92.61121094 88.04445313 91.78492188 88.03515625 90.93359375 C88.02355469 90.29550781 88.01195312 89.65742188 88 89 C87.18015625 88.74347656 86.3603125 88.48695313 85.515625 88.22265625 C76.85886548 85.14722853 76.85886548 85.14722853 74.3828125 81.83984375 C73.41051278 79.58245021 72.66781044 77.36335513 72 75 C71.38125 73.7315625 71.38125 73.7315625 70.75 72.4375 C69.6420979 68.83681817 69.22187556 65.67376783 70 62 C71.47660428 59.32416462 73.08598371 56.86616908 74.8828125 54.39453125 C76.31767367 51.99530697 76.31767367 51.99530697 75.2421875 49.26171875 C74.19063558 47.09750779 74.19063558 47.09750779 73 46 C71.02209517 46.21812013 69.04445231 46.43902882 67.06860352 46.67504883 C59.8146908 47.45414326 54.72864582 47.81054984 48.5625 43.3125 C46.06640625 41.17578125 46.06640625 41.17578125 44 39 C43.42507813 38.40058594 42.85015625 37.80117188 42.2578125 37.18359375 C40.46096159 34.06421593 40.47782019 31.3209161 40.3125 27.75 C40.24675781 26.48671875 40.18101562 25.2234375 40.11328125 23.921875 C40.05720703 22.47554688 40.05720703 22.47554688 40 21 C37.36 20.34 34.72 19.68 32 19 C31.37351562 19.71027344 30.74703125 20.42054688 30.1015625 21.15234375 C29.28429687 22.07144531 28.46703125 22.99054688 27.625 23.9375 C26.81289063 24.85402344 26.00078125 25.77054687 25.1640625 26.71484375 C21.84412026 30.22055893 19.54549687 30.21985831 14.77783203 30.39379883 C2.45771533 30.6121887 2.45771533 30.6121887 -1.375 27.3125 C-2.81640625 25.66796875 -2.81640625 25.66796875 -4 24 C-4.763125 23.05125 -5.52625 22.1025 -6.3125 21.125 C-6.869375 20.42375 -7.42625 19.7225 -8 19 C-11.59133197 19 -13.12858537 19.80061858 -16 22 Z " fill="#000001" transform="translate(406,324)"/>
<path d="M0 0 C1.44455437 2.46493774 2.71462182 4.86563795 3.9375 7.4375 C4.29231445 8.17323242 4.64712891 8.90896484 5.01269531 9.66699219 C5.71160869 11.12847342 6.40464549 12.59278184 7.09130859 14.06005859 C7.80100197 15.57516433 8.53131632 17.08061565 9.26953125 18.58203125 C20.54492637 43.51368181 17.76352438 73.57107468 8.76171875 98.66015625 C6.24737054 105.17997048 2.7294799 111.11234392 -1 117 C-12.69237257 115.8181903 -21.7398955 111.13210921 -31 104 C-32.051875 103.236875 -33.10375 102.47375 -34.1875 101.6875 C-45.77936923 90.61082496 -51.90067075 75.48483032 -52.29248047 59.64477539 C-52.44180056 42.71515493 -47.08595782 28.66710182 -35.3515625 16.28515625 C-27.475672 8.63167462 -11.75738847 -3.91912949 0 0 Z " fill="#FCD765" transform="translate(334,104)"/>
<path d="M0 0 C8.57115529 6.12225378 15.00721658 14.83613312 17.25 25.25 C18.15385196 35.58383292 18.21589053 45.92343685 13.25 55.25 C12.8375 56.03503906 12.425 56.82007813 12 57.62890625 C6.75721109 66.43142968 -1.62059413 72.7793342 -11.1484375 76.3984375 C-23.06337653 79.21563566 -36.17386099 78.77300789 -46.75 72.25 C-53.70543583 67.67928502 -58.86881608 62.63637815 -62.75 55.25 C-63.1625 54.47527344 -63.575 53.70054687 -64 52.90234375 C-66.69322598 46.85193678 -67.12823965 41.09248586 -67.1875 34.5625 C-67.20272705 33.36874756 -67.20272705 33.36874756 -67.21826172 32.15087891 C-67.06765177 21.9412217 -62.56310505 12.53335095 -55.7109375 5.01171875 C-40.0874408 -9.64566066 -18.10429264 -11.08055369 0 0 Z " fill="#020203" transform="translate(442.75,382.75)"/>
<path d="M0 0 C3.26416214 0.48471994 5.37586438 1.76547372 8.01171875 3.6953125 C8.76598145 4.24356689 9.52024414 4.79182129 10.29736328 5.35668945 C11.0861084 5.94023193 11.87485352 6.52377441 12.6875 7.125 C13.49171387 7.7130542 14.29592773 8.3011084 15.12451172 8.90698242 C20.4894505 12.84348044 25.81366579 16.82970202 31 21 C29.34167213 24.94567665 26.6527597 27.93407023 23.875 31.125 C22.8674549 32.29859167 21.86095016 33.47307727 20.85546875 34.6484375 C20.36353027 35.22303711 19.8715918 35.79763672 19.36474609 36.38964844 C17.59610307 38.47658392 15.8859909 40.60570129 14.1875 42.75 C8.76004312 49.59574293 3.16959359 56.30811021 -2.39013672 63.04638672 C-4.43318889 65.52568661 -6.467712 68.0118717 -8.5 70.5 C-12.32120454 75.1766981 -16.15937666 79.83925148 -20 84.5 C-25.34687337 90.9890275 -30.68116158 97.48796209 -36 104 C-40.19166063 109.13199514 -44.38656555 114.26078916 -48.609375 119.3671875 C-49.24077393 120.13144043 -49.87217285 120.89569336 -50.52270508 121.68310547 C-51.78176049 123.2065577 -53.04198147 124.72904752 -54.3034668 126.25048828 C-54.88265869 126.95157715 -55.46185059 127.65266602 -56.05859375 128.375 C-56.57736084 129.00148438 -57.09612793 129.62796875 -57.63061523 130.2734375 C-58.83294965 131.78937778 -59.92673281 133.39009922 -61 135 C-65.52630466 134.12492665 -68.21128452 131.49872065 -71.5625 128.5 C-72.80481627 127.40621799 -74.04832156 126.31378509 -75.29296875 125.22265625 C-75.91220215 124.67883301 -76.53143555 124.13500977 -77.16943359 123.57470703 C-80.70403946 120.53413516 -84.39904147 117.69267252 -88.0859375 114.83984375 C-89.03339844 113.92912109 -89.03339844 113.92912109 -90 113 C-90 109.19703138 -88.96597974 108.38604975 -86.5625 105.5 C-85.8303125 104.61183594 -85.098125 103.72367187 -84.34375 102.80859375 C-83.5703125 101.88175781 -82.796875 100.95492187 -82 100 C-80.51955695 98.1885424 -79.04039175 96.3760397 -77.5625 94.5625 C-76.04194699 92.70810344 -74.52111276 90.85393744 -73 89 C-71.49971683 87.16689838 -69.99971592 85.33356573 -68.5 83.5 C-14.5 17.5 -14.5 17.5 -12.28125 14.7890625 C-10.67595764 12.82642767 -9.0717361 10.86295334 -7.46875 8.8984375 C-6.6540625 7.90070313 -5.839375 6.90296875 -5 5.875 C-4.2575 4.96492188 -3.515 4.05484375 -2.75 3.1171875 C-1.86722208 2.04918385 -0.97977769 0.97977769 0 0 Z " fill="#F53344" transform="translate(112,313)"/>
<path d="M0 0 C0.67289062 0.46792969 1.34578125 0.93585938 2.0390625 1.41796875 C3.39644531 2.26294922 3.39644531 2.26294922 4.78125 3.125 C13.67626047 9.10306814 21.35422063 15.96355692 29.0390625 23.41796875 C26.49786364 25.95916761 24.07736739 26.67220121 20.7265625 27.98046875 C1.41970031 35.93594703 -12.3483327 50.49977186 -20.8359375 69.35546875 C-28.50572864 89.3659273 -27.42578574 109.59558749 -19.3984375 129.2578125 C-10.75070626 148.26872166 3.49623686 161.99623231 23.0390625 169.41796875 C25.02518924 170.12489522 27.01829043 170.81719867 29.0390625 171.41796875 C27.47144751 175.3415899 24.79110412 177.8788201 21.7265625 180.66796875 C21.2018335 181.14669434 20.67710449 181.62541992 20.13647461 182.11865234 C13.99261702 187.56069201 5.48177515 194.941364 -2.9609375 195.41796875 C-5.41796875 194.421875 -5.41796875 194.421875 -7.7734375 192.98046875 C-8.95873047 192.27083984 -8.95873047 192.27083984 -10.16796875 191.546875 C-10.75964844 191.17433594 -11.35132813 190.80179688 -11.9609375 190.41796875 C-11.8165625 189.80050781 -11.6721875 189.18304688 -11.5234375 188.546875 C-11.3378125 187.69996094 -11.1521875 186.85304687 -10.9609375 185.98046875 C-10.7753125 185.15675781 -10.5896875 184.33304688 -10.3984375 183.484375 C-10.2540625 182.47246094 -10.1096875 181.46054688 -9.9609375 180.41796875 C-9.86055176 179.72751465 -9.76016602 179.03706055 -9.65673828 178.32568359 C-9.37066658 174.84601147 -9.33347468 172.40365796 -11.24511719 169.40063477 C-13.01668317 167.44142864 -14.86540888 165.67640525 -16.8359375 163.91796875 C-17.81240234 162.98984375 -17.81240234 162.98984375 -18.80859375 162.04296875 C-23.3037936 157.62891787 -23.3037936 157.62891787 -29.2734375 156.23046875 C-32.78965633 156.40925954 -34.7807066 157.07892416 -37.9609375 158.41796875 C-40.40625 158.74609375 -40.40625 158.74609375 -42.9609375 158.41796875 C-44.7265625 156.58984375 -44.7265625 156.58984375 -46.2109375 154.16796875 C-46.71109375 153.3790625 -47.21125 152.59015625 -47.7265625 151.77734375 C-48.85399703 149.62237394 -49.50324924 147.79358877 -49.9609375 145.41796875 C-49.40664062 144.9590625 -48.85234375 144.50015625 -48.28125 144.02734375 C-47.55679688 143.41375 -46.83234375 142.80015625 -46.0859375 142.16796875 C-45.36664063 141.5646875 -44.64734375 140.96140625 -43.90625 140.33984375 C-41.94154813 138.39881299 -40.90337386 136.99964283 -39.9609375 134.41796875 C-40.2122158 126.50270232 -41.48458797 115.94268488 -47.20703125 110.140625 C-50.24024878 108.24325063 -52.78788203 107.4340249 -56.2734375 106.66796875 C-58.1503125 106.25546875 -60.0271875 105.84296875 -61.9609375 105.41796875 C-61.9609375 100.46796875 -61.9609375 95.51796875 -61.9609375 90.41796875 C-55.9609375 88.41796875 -55.9609375 88.41796875 -53.546875 87.8828125 C-50.16961103 87.07728134 -47.71513418 86.44090218 -45.6015625 83.57421875 C-44.52396477 81.22008217 -43.71529361 78.89439032 -42.9609375 76.41796875 C-42.51621094 75.13019531 -42.51621094 75.13019531 -42.0625 73.81640625 C-39.78198288 67.21691677 -39.78198288 67.21691677 -39.9609375 60.41796875 C-42.80464951 56.39885577 -45.86283125 53.15003958 -49.9609375 50.41796875 C-49.40104447 46.42784504 -48.20423982 43.89246355 -45.8984375 40.60546875 C-45.35058594 39.81527344 -44.80273438 39.02507812 -44.23828125 38.2109375 C-43.81675781 37.61925781 -43.39523438 37.02757812 -42.9609375 36.41796875 C-41.8471875 36.74796875 -40.7334375 37.07796875 -39.5859375 37.41796875 C-33.64816192 38.8734093 -27.52499566 39.92295941 -22.0859375 36.73046875 C-20.65635529 35.17474693 -19.28080086 33.56779795 -17.9609375 31.91796875 C-15.86626204 29.29962443 -13.59003291 27.4786111 -10.9609375 25.41796875 C-7.98852935 19.47315245 -10.17031773 11.46131047 -11.9609375 5.41796875 C-10.39047007 4.35700412 -8.80399233 3.3197064 -7.2109375 2.29296875 C-6.32921875 1.71289062 -5.4475 1.1328125 -4.5390625 0.53515625 C-1.9609375 -0.58203125 -1.9609375 -0.58203125 0 0 Z " fill="#90AEF5" transform="translate(291.9609375,63.58203125)"/>
<path d="M0 0 C3.125 0.375 3.125 0.375 6 1 C6.03738281 1.73605469 6.07476562 2.47210938 6.11328125 3.23046875 C6.21189453 4.69419922 6.21189453 4.69419922 6.3125 6.1875 C6.37050781 7.15042969 6.42851562 8.11335938 6.48828125 9.10546875 C7.6767126 15.82781709 12.20066368 19.3923303 17.37890625 23.390625 C21.92054959 26.17923462 24.99228798 25.49857569 30.16796875 24.640625 C35.71126347 23.79247062 35.71126347 23.79247062 38 25.4375 C38.495 26.2109375 38.495 26.2109375 39 27 C37.92692821 30.04037008 36.80758635 32.26032435 34.875 34.875 C31.50048593 40.49919011 32.89827378 45.43186419 34.3125 51.5625 C36.01068457 56.96185607 37.76946034 59.1203164 42.75 61.8125 C44.48121748 62.58520309 46.22638852 63.33030877 48 64 C48 66.31 48 68.62 48 71 C47.24074219 71.3403125 46.48148437 71.680625 45.69921875 72.03125 C38.89255671 75.12635168 38.89255671 75.12635168 34.875 81.0625 C34.54194556 82.36511293 34.24511795 83.67801555 34 85 C33.773125 85.845625 33.54625 86.69125 33.3125 87.5625 C32.42555299 94.48068667 33.20366683 98.07627361 37.1015625 103.7890625 C38 106 38 106 37.1484375 108.7734375 C36.76945312 109.50820312 36.39046875 110.24296875 36 111 C34.97261719 110.835 33.94523437 110.67 32.88671875 110.5 C25.33355795 109.51726711 20.08213535 109.03826875 13.625 113.75 C8.53739315 118.02297494 6.78672205 121.11007661 5.875 127.6875 C5.62363281 129.45673828 5.62363281 129.45673828 5.3671875 131.26171875 C5.24601562 132.16535156 5.12484375 133.06898438 5 134 C2.33984375 134.8125 2.33984375 134.8125 -1 135 C-3.80859375 132.9375 -3.80859375 132.9375 -6.4375 130 C-7.32308594 129.05125 -8.20867187 128.1025 -9.12109375 127.125 C-11 124 -11 124 -10.97265625 120.6875 C-10.05213524 117.19765327 -8.95231998 113.84040258 -7.77099609 110.43359375 C0.93187034 82.96362143 -0.45608862 49.10011264 -8.98461914 21.85449219 C-11.37769496 13.82523133 -11.37769496 13.82523133 -9.39453125 9.4921875 C-8.11642578 8.19667969 -8.11642578 8.19667969 -6.8125 6.875 C-5.97332031 5.98554687 -5.13414062 5.09609375 -4.26953125 4.1796875 C-3.52058594 3.46039063 -2.77164062 2.74109375 -2 2 C-1.34 1.34 -0.68 0.68 0 0 Z " fill="#90AFF6" transform="translate(402,95)"/>
<path d="M0 0 C6.44213807 4.0263363 11.99408632 8.24072851 14 15.875 C15.08547033 25.04005605 14.81484916 33.37874867 9 40.875 C3.12479535 46.65369205 -3.11004056 49.14993996 -11.375 49.25 C-17.22791025 49.15667341 -21.19631186 48.18039493 -26 44.875 C-26.9075 44.276875 -27.815 43.67875 -28.75 43.0625 C-34.58195109 37.39254755 -36.14851423 31.10579097 -36.375 23.1875 C-36.31264767 15.68963198 -34.67823863 10.78990814 -29.54296875 5.32421875 C-21.59488097 -1.78502071 -10.09995719 -3.86513168 0 0 Z " fill="#DDDCEB" transform="translate(429,394.125)"/>
<path d="M0 0 C0.66 0 1.32 0 2 0 C3.4328718 1.61718311 4.79624749 3.29623372 6.125 5 C25.79492029 29.43933044 53.03587884 44.27254772 82 55 C80.29055213 58.91828502 77.73118655 62.14918873 75.125 65.5 C74.69058594 66.06847656 74.25617188 66.63695312 73.80859375 67.22265625 C71.3829727 70.36212373 68.87835261 73.26891194 66 76 C65.32348389 75.46596558 65.32348389 75.46596558 64.63330078 74.92114258 C54.01437658 66.55629841 43.247455 58.45784106 32.24560547 50.60449219 C28.50971285 47.93518513 24.78564789 45.24954251 21.0625 42.5625 C20.3312793 42.03527344 19.60005859 41.50804687 18.84667969 40.96484375 C12.31732451 36.24840529 5.8340267 31.47028425 -0.63256836 26.66821289 C-4.68862677 23.66465098 -8.77052338 20.75454767 -13 18 C-11.55484843 13.46635306 -9.18923754 10.74203039 -5.9375 7.3125 C-2.58041094 3.93079316 -2.58041094 3.93079316 0 0 Z " fill="#F33344" transform="translate(111,262)"/>
</svg>
